<svg version="1.1" id="Layer_1" xmlns="http://www.w3.org/2000/svg" xmlns:xlink="http://www.w3.org/1999/xlink" x="0px" y="0px"
	 width="100%" viewBox="0 0 1024 1024" enable-background="new 0 0 1024 1024" xml:space="preserve">
<path fill="#000000" opacity="1.000000" stroke="none" 
	d="
M114.670807,425.368103 
	C133.466858,463.226593 158.426804,495.926575 190.117004,523.825867 
	C189.068634,516.176392 188.073807,508.518982 186.939407,500.882324 
	C186.597031,498.577545 184.521973,497.364746 183.031738,495.835358 
	C153.350449,465.373993 130.992172,430.442047 119.148979,389.364410 
	C110.429359,359.120667 112.203712,329.143066 123.505219,299.758820 
	C124.195953,297.962860 124.529541,295.865112 127.677986,294.117615 
	C131.797485,332.593384 143.314468,368.287811 161.620758,401.845215 
	C151.757462,348.937286 159.680832,299.226624 187.597748,253.039612 
	C195.225922,240.419189 206.405350,227.747726 212.479996,225.052612 
	C202.751526,249.231903 194.592056,273.043365 192.879532,298.561707 
	C191.171509,324.012787 192.665512,349.088379 200.674332,373.634369 
	C200.674332,370.338257 200.674515,367.042175 200.674301,363.746063 
	C200.674057,360.246460 200.607864,356.745453 200.682968,353.247467 
	C201.597351,310.657288 210.467957,269.992950 231.274063,232.531128 
	C248.850342,200.884689 272.641357,175.026718 304.731598,157.435242 
	C305.599426,156.959503 306.476685,156.491531 307.387299,156.109940 
	C307.613495,156.015152 307.987122,156.272125 309.362671,156.700668 
	C272.297516,193.467972 254.528625,237.351395 258.446991,289.305511 
	C261.049103,286.268585 260.913025,282.373901 261.728699,278.802795 
	C272.171387,233.084335 300.396118,201.743820 341.593109,181.587585 
	C367.144867,169.086014 394.458038,162.982498 423.109070,162.565109 
	C459.151855,162.040024 493.611420,168.659805 526.528809,183.308380 
	C530.752380,185.187897 535.057007,186.984787 538.447144,189.943756 
	C538.719238,191.696960 537.627319,192.372238 536.724792,193.015091 
	C519.123169,205.551697 504.167084,221.071182 488.894623,236.147034 
	C464.272766,260.451904 434.884857,275.826843 401.902069,285.063599 
	C391.164246,288.070709 380.493256,291.316284 369.788086,294.440491 
	C368.855347,294.712677 367.915070,295.233215 366.183441,294.145355 
	C372.137573,275.509186 382.738220,259.369080 395.014191,244.048019 
	C389.962280,245.584930 386.361206,249.000595 382.823669,252.284012 
	C368.194794,265.862122 355.522247,281.014923 346.572876,299.015076 
	C345.362305,301.449951 344.088776,303.633026 341.465424,304.878204 
	C325.988068,312.224457 311.728821,321.250916 300.771332,334.767303 
	C300.611755,334.964172 300.158600,334.923004 298.924316,335.195984 
	C300.983887,323.874847 303.863007,313.201477 307.913116,302.822784 
	C311.996552,292.358643 317.002045,282.321198 322.235962,272.327545 
	C317.613556,275.294525 314.196106,279.316711 310.926453,283.456818 
	C290.539490,309.271362 277.881500,338.799896 269.385590,370.299927 
	C267.912140,375.763062 266.529175,381.275574 265.583893,386.846649 
	C265.032135,390.098511 263.746887,391.619446 260.498199,392.551544 
	C238.869431,398.757294 221.142654,410.968048 206.812744,428.214966 
	C205.664169,429.597351 204.324890,430.919434 203.790512,434.189850 
	C221.663879,421.214600 239.500595,410.090332 261.861176,405.822906 
	C248.667969,476.832916 263.440338,544.436340 280.516113,611.813477 
	C281.052856,611.798218 281.589600,611.783020 282.126343,611.767761 
	C282.126343,603.515930 281.660706,595.230164 282.257751,587.021729 
	C282.850464,578.872192 283.566071,570.611694 286.618866,562.304993 
	C288.679443,563.931641 288.825806,565.801025 289.319397,567.443604 
	C298.646362,598.484863 310.349640,628.530762 326.990082,656.463318 
	C349.940094,694.987122 382.288757,723.551819 421.253418,745.078003 
	C431.331512,750.645691 441.636200,755.695068 452.448822,759.674377 
	C454.116547,760.288147 455.807678,760.838318 458.575562,761.792969 
	C453.215759,754.369568 447.003601,749.012329 443.608368,741.463867 
	C471.420776,757.003479 497.724854,774.738281 524.305847,792.495361 
	C496.702972,792.460327 470.327484,786.359314 444.080841,779.497925 
	C417.523926,772.555359 392.227661,762.500061 368.390594,748.818298 
	C344.525818,735.120728 324.276520,716.750793 303.426117,699.088074 
	C317.299469,718.744873 336.415955,732.704529 355.358124,746.962769 
	C288.270508,719.408997 230.881668,677.941711 180.815582,625.640198 
	C190.172546,628.724670 199.415634,632.171204 209.289246,632.683044 
	C219.010483,633.186890 228.758194,634.703857 238.806717,632.986755 
	C237.509048,628.736938 234.459793,627.766357 231.067047,627.372620 
	C208.241394,624.724121 186.387924,618.663635 165.323395,609.432129 
	C160.504578,607.320312 158.738297,603.123779 155.741135,599.702209 
	C145.943573,588.517334 137.323517,576.444763 129.339691,563.944885 
	C108.350578,531.083435 93.832649,495.725708 89.986481,456.630524 
	C87.594353,432.315063 88.891930,408.092957 94.644432,384.232452 
	C95.065002,382.488007 95.654678,380.784302 96.810219,378.912354 
	C102.352234,394.486633 107.277817,410.212524 114.670807,425.368103 
M255.934875,632.495789 
	C249.106445,621.651306 242.264465,610.821838 236.206360,599.509033 
	C221.449799,571.952759 209.509949,543.339661 203.194901,512.589844 
	C201.367096,503.689606 199.693726,494.757690 197.949554,485.840302 
	C196.875885,487.972046 196.277878,490.087311 196.416718,492.153046 
	C197.386276,506.579346 198.569565,521.000854 202.691376,534.953308 
	C212.918808,569.573608 228.937225,601.419189 249.280731,631.135620 
	C256.510284,641.696106 264.090790,652.013306 274.136047,660.220886 
	C268.197998,651.183716 262.259949,642.146606 255.934875,632.495789 
M448.480988,195.915100 
	C447.065399,196.476700 445.407928,196.573639 443.773315,198.544037 
	C456.191864,193.594711 468.598846,191.956024 480.793365,189.408142 
	C469.919922,189.841980 459.357513,191.793381 448.480988,195.915100 
z"/>
<path fill="#000000" opacity="1.000000" stroke="none" 
	d="
M540.107544,678.999329 
	C530.371399,675.392517 520.995300,671.941711 511.635223,668.447937 
	C506.716278,666.611755 501.769440,665.481995 496.501404,666.913391 
	C494.688782,667.405823 492.509003,667.547363 491.971497,665.161377 
	C489.624756,654.744263 487.162109,644.265259 494.556702,633.703003 
	C497.834290,638.632141 501.679321,642.370911 506.249390,645.394714 
	C515.912415,651.788330 526.456787,654.599426 537.996277,653.823364 
	C541.412476,653.593689 544.550964,652.562073 547.295776,650.550354 
	C551.433838,647.517700 552.514038,642.864685 549.614868,638.709167 
	C542.844666,629.005188 533.502869,622.888916 521.958252,620.413147 
	C515.928467,619.119995 511.712189,621.949585 509.161987,628.222168 
	C502.703003,622.517822 495.819122,617.917236 492.358612,610.273682 
	C489.042999,602.950134 493.358154,592.914917 501.290771,588.158875 
	C501.560944,588.319458 502.015869,588.431396 502.073853,588.649109 
	C504.911377,599.303711 512.086609,603.098877 521.981445,598.068298 
	C533.125793,592.402466 543.727478,593.076294 554.525940,598.405884 
	C564.092041,603.127258 573.571899,607.914124 584.729065,607.774292 
	C597.180176,607.618164 607.872131,603.648071 616.577454,594.615723 
	C617.457520,593.702576 618.156311,592.422729 619.716370,592.440735 
	C621.796570,605.194885 606.499451,620.696472 585.347168,627.183777 
	C588.521851,636.390381 580.486389,636.958618 575.182678,639.725586 
	C581.645691,643.739868 589.619995,640.737610 591.404419,633.390625 
	C592.213379,630.059875 593.739929,628.728882 596.768311,627.895386 
	C599.632019,627.107239 602.387085,625.824951 605.073059,624.519531 
	C607.582642,623.299805 609.938599,621.764099 612.705383,620.169678 
	C614.052124,623.670593 610.471619,625.526245 610.869751,628.798218 
	C619.667786,634.321045 629.742249,633.762390 640.460693,632.852051 
	C638.057922,638.231873 633.856201,640.450684 630.166443,643.018433 
	C626.369202,645.660950 622.203552,647.774170 617.462158,650.550537 
	C624.385681,658.715271 633.780396,662.326355 643.639648,666.471375 
	C636.347046,672.099670 628.165344,673.081604 620.658386,676.925720 
	C631.406250,686.772095 643.085388,694.163940 655.366943,700.714417 
	C657.541626,698.410522 656.815796,695.958130 656.819702,693.740540 
	C656.853516,674.577026 656.791809,655.413330 656.765442,636.249695 
	C656.755859,629.303955 657.021423,629.034790 664.132507,628.998535 
	C670.964722,628.963745 677.797180,628.929810 684.629211,628.964172 
	C690.605896,628.994263 691.071777,629.478577 691.094055,635.632507 
	C691.130249,645.630493 691.072266,655.628906 691.151794,665.626404 
	C691.166565,667.479126 690.488892,669.898987 693.292358,670.551208 
	C695.863159,671.149231 697.105835,669.822083 698.173340,667.503845 
	C699.482361,664.660645 702.315552,663.740662 705.309631,663.870178 
	C708.426819,664.005127 708.101685,666.604736 708.423584,668.687561 
	C708.641663,670.098755 709.596741,670.568359 710.912720,670.613892 
	C712.412598,670.665710 713.748718,670.243408 713.827026,668.595459 
	C714.046143,663.981567 716.805115,662.833923 720.851746,662.805481 
	C724.124512,662.782471 723.656189,660.077942 723.664551,657.991333 
	C723.713562,645.826782 723.705811,633.662048 723.711060,621.497375 
	C723.713928,614.817627 723.741516,614.770142 730.338135,614.744629 
	C737.670227,614.716309 745.010315,614.916443 752.331726,614.629944 
	C756.785645,614.455688 758.151550,616.251953 758.097656,620.484253 
	C757.942871,632.646545 758.098999,644.812561 758.063721,656.976929 
	C758.054504,660.158569 758.048523,662.876160 762.421631,663.250244 
	C766.429626,663.593018 765.132629,667.590149 766.208618,670.127563 
	C769.333618,671.363525 771.508362,671.004761 772.394836,667.133484 
	C772.939514,664.754700 774.890198,663.782837 777.324158,663.698120 
	C779.814392,663.611450 781.496582,664.698425 782.386658,666.956787 
	C783.193359,669.003479 783.780579,671.346375 786.753540,670.570251 
	C789.835571,669.765686 788.727966,667.081787 788.768372,665.128479 
	C788.906067,658.465515 788.900696,651.797607 788.820801,645.133057 
	C788.783142,641.993591 790.036011,640.591919 793.260315,640.638550 
	C800.590759,640.744568 807.927551,640.812744 815.254211,640.616638 
	C819.235291,640.510132 820.424988,642.158447 820.373535,645.966309 
	C820.206909,658.295410 820.292297,670.628235 820.328003,682.959473 
	C820.332642,684.569946 819.850769,686.279114 821.072510,688.043457 
	C823.118896,687.507935 823.445496,685.603088 824.170166,684.075500 
	C828.404114,675.149902 830.544983,665.512207 833.637939,656.197937 
	C836.746460,646.836731 841.355286,638.521790 849.771484,632.782837 
	C861.939209,624.485718 878.065186,627.269348 886.569885,639.212341 
	C892.581970,647.654968 889.592651,659.766174 880.759338,662.753845 
	C875.863953,664.409607 872.081421,662.062805 871.870239,657.239929 
	C871.989319,657.123901 872.089355,656.924316 872.223755,656.897522 
	C874.955994,656.354004 878.768005,657.315918 878.572083,652.588135 
	C878.436279,649.310791 873.882751,646.136719 869.923889,646.686279 
	C864.423584,647.449829 860.850342,650.779053 859.264221,655.978394 
	C858.103577,659.783020 857.394104,663.730652 856.578613,667.634399 
	C850.017883,699.041504 830.559875,718.857727 800.983521,729.629578 
	C787.380798,734.583740 773.257019,736.656799 758.881348,737.156250 
	C752.458374,737.379456 752.517822,737.141357 752.583069,730.876526 
	C752.627991,726.563171 753.029846,722.222107 751.695007,717.976013 
	C749.591492,711.284729 744.285706,707.553101 737.804260,708.344177 
	C731.914795,709.063049 727.516479,714.257202 727.225952,720.979309 
	C727.096436,723.973938 727.168884,726.977112 727.144897,729.976440 
	C727.094971,736.218811 726.347229,736.898010 720.141357,736.126099 
	C705.562195,734.312744 691.281677,731.031677 677.271729,726.715149 
	C641.617371,715.729980 606.573669,702.965393 571.577393,690.067505 
	C561.267334,686.267700 550.845093,682.772339 540.107544,678.999329 
M549.526489,613.475525 
	C548.599182,613.405396 547.685364,612.575623 546.736206,613.408875 
	C548.924805,620.299866 554.606323,623.166199 560.713867,620.166138 
	C557.381714,617.501343 553.936279,615.342957 549.526489,613.475525 
M848.554565,650.609192 
	C852.050903,645.116943 856.639221,640.807739 863.955994,637.466858 
	C853.112732,639.848572 847.482361,645.323608 847.453491,652.404419 
	C847.728394,651.952515 847.985962,651.529053 848.554565,650.609192 
z"/>
<path fill="#000000" opacity="1.000000" stroke="none" 
	d="
M400.575195,800.821655 
	C344.004791,811.687134 275.843628,786.635254 252.439804,767.708435 
	C260.511414,768.458984 267.388092,769.994629 274.402740,769.740662 
	C281.378021,769.488098 288.310974,769.310120 295.166168,766.554077 
	C252.498215,758.977966 218.320007,736.621216 189.302689,705.784302 
	C160.605026,675.286987 139.231201,640.484985 128.925873,598.663940 
	C132.084183,599.216980 133.055054,601.037781 134.270584,602.446472 
	C165.448685,638.579102 200.755463,670.107361 239.681213,697.695007 
	C294.712585,736.697144 355.716492,762.575623 420.251831,780.964966 
	C445.898987,788.273132 471.678589,794.800110 498.168213,798.189087 
	C507.407227,799.371033 516.631897,800.646729 525.971985,800.986328 
	C529.408386,801.111328 533.404236,800.542542 536.561218,804.935120 
	C512.852051,819.174072 487.132080,825.066467 460.213593,827.291443 
	C468.598206,822.436096 477.956665,819.378235 484.877167,811.895142 
	C447.555939,827.048828 409.934418,826.893738 371.852295,815.044861 
	C394.590363,813.013733 416.010864,807.932800 434.481995,791.360168 
	C422.640259,795.072449 412.158112,799.172241 400.575195,800.821655 
z"/>
<path fill="#000000" opacity="1.000000" stroke="none" 
	d="
M864.680542,861.359741 
	C825.924011,862.378540 787.597168,862.695374 749.348389,864.588257 
	C705.422791,866.762085 661.509460,868.112305 617.532593,868.538269 
	C555.559265,869.138550 493.587708,869.269287 431.619415,868.781311 
	C394.321228,868.487610 357.025269,867.286987 319.740448,866.108887 
	C286.795380,865.067871 253.904739,862.585449 220.933945,862.082275 
	C219.453278,862.059692 217.907089,861.917114 216.514709,861.457153 
	C213.734650,860.538879 211.981415,858.405579 211.918411,855.533325 
	C211.855682,852.673584 214.013870,851.091492 216.528854,850.290039 
	C217.923492,849.845520 219.466919,849.710510 220.944153,849.705688 
	C263.746399,849.564575 306.475098,846.766113 349.283600,846.380798 
	C375.429108,846.145508 401.595367,846.337708 427.728455,845.515686 
	C453.486481,844.705566 479.373779,845.550049 504.903229,840.783081 
	C522.214844,837.550598 539.049316,833.098572 553.339539,822.090698 
	C556.031006,820.017395 557.909851,821.625366 560.020874,823.038147 
	C578.540466,835.432251 598.688660,843.917053 620.730469,847.415955 
	C644.074402,851.121582 667.464966,850.863586 690.863831,847.439514 
	C700.417969,846.041443 710.044861,846.113953 719.737549,846.476196 
	C749.187439,847.577026 778.666931,847.884521 808.117004,848.981445 
	C826.269897,849.657532 844.421387,849.546936 862.571167,849.914490 
	C863.403931,849.931335 864.246094,849.878662 865.067627,849.984619 
	C868.665161,850.448669 872.556030,851.153503 872.515808,855.695312 
	C872.477112,860.069275 869.052307,861.334595 864.680542,861.359741 
z"/>
<path fill="#000000" opacity="1.000000" stroke="none" 
	d="
M403.719086,595.309509 
	C419.058167,619.079651 439.528564,636.618958 464.290009,649.224060 
	C463.404633,650.945557 462.273987,650.455017 461.448792,650.199097 
	C420.422302,637.475586 386.186462,615.280884 364.029388,577.589783 
	C344.967041,545.163086 340.383636,510.384918 353.703979,474.829956 
	C363.405334,448.934875 381.958130,430.967163 410.077209,426.320129 
	C447.108398,420.200195 473.996552,441.722626 479.889709,472.564087 
	C484.783020,498.172882 468.774567,523.929993 444.509125,528.735291 
	C436.078369,530.404846 428.264832,528.560730 421.373779,523.369141 
	C416.303741,519.549438 414.406006,513.714661 416.154846,508.040527 
	C416.970673,507.594940 417.386169,508.211639 417.731262,508.724762 
	C424.383301,518.614197 432.507660,517.433167 438.963409,514.167542 
	C446.573395,510.318054 449.845978,501.260864 447.032623,492.686859 
	C443.196289,480.995300 430.072174,474.567688 416.876038,477.775208 
	C408.351837,479.847107 401.971466,484.838165 396.772247,491.692017 
	C383.713806,508.906311 382.308472,528.408081 385.651886,548.757202 
	C388.383881,565.385071 394.360870,580.827698 403.719086,595.309509 
z"/>
<path fill="#000000" opacity="1.000000" stroke="none" 
	d="
M578.453003,511.477753 
	C577.100708,492.198639 578.108826,496.315765 591.667175,495.929291 
	C598.375183,495.738007 598.224548,495.920410 598.454895,503.008667 
	C598.552979,506.027710 596.462219,510.514191 602.557739,510.660736 
	C608.122192,510.794464 608.842285,510.274109 608.945862,504.591766 
	C609.079590,497.263550 609.325989,489.935394 609.321167,482.607361 
	C609.318298,478.188385 611.040466,476.453339 615.637817,476.610107 
	C624.958801,476.927948 634.303467,476.943542 643.625916,476.665344 
	C648.386536,476.523285 650.271545,478.146301 650.102478,482.945587 
	C649.844482,490.268829 649.949280,497.606628 649.996948,504.937592 
	C650.008118,506.664337 649.400452,508.633911 651.400513,510.219391 
	C653.557068,508.395264 655.048889,505.753937 658.295776,505.158264 
	C660.197571,504.809387 659.725891,502.357880 659.662048,500.770660 
	C659.398010,494.208344 664.312622,496.182343 667.741699,495.823669 
	C671.641907,495.415741 673.570312,496.950073 673.447327,501.211700 
	C673.235962,508.536865 673.387634,515.873352 673.442139,523.204712 
	C673.454468,524.862549 673.606384,526.531677 673.853149,528.171692 
	C674.071106,529.620605 674.177734,531.382324 676.252930,531.391724 
	C678.248169,531.400757 678.673157,529.870056 678.712524,528.284546 
	C678.793030,525.040466 680.866577,524.569580 683.466736,524.650940 
	C685.808105,524.724304 688.322693,524.354614 688.432739,527.912231 
	C688.484314,529.580933 689.335754,530.879272 691.230652,530.703003 
	C693.469177,530.494812 693.628235,528.691101 693.635376,526.978027 
	C693.670044,518.646729 693.868591,510.308533 693.592468,501.986572 
	C693.442566,497.467316 694.952026,495.534241 699.557983,495.771393 
	C704.045227,496.002472 708.557678,495.952728 713.050903,495.794739 
	C716.570984,495.670959 718.253235,496.878723 718.243530,500.644135 
	C718.205383,515.473083 718.254395,530.303772 718.471313,545.130920 
	C718.521118,548.537048 716.386047,548.336548 714.254028,548.560913 
	C696.322266,550.448120 678.728333,554.028625 661.510132,559.355957 
	C655.518188,561.209839 649.669861,563.527710 643.557556,565.704285 
	C641.927124,561.989990 642.943665,558.477783 642.716736,555.090271 
	C642.248718,548.105774 638.303101,542.738220 632.371643,541.331848 
	C623.927307,539.329651 616.755127,544.728271 616.271851,553.775391 
	C615.952271,559.758240 616.072388,565.769287 616.139771,571.766113 
	C616.174072,574.819275 614.991577,576.463013 612.063782,577.743774 
	C592.080505,586.485535 571.752319,587.031677 551.037781,580.890991 
	C547.047729,579.708252 543.063721,578.491455 539.031189,577.471008 
	C536.669861,576.873596 535.779663,575.509216 535.780762,573.186462 
	C535.787415,559.689636 535.764832,546.192749 535.711060,532.696045 
	C535.700378,530.016113 536.842712,528.689697 539.586792,528.714661 
	C544.585083,528.760071 549.585022,528.786865 554.582581,528.711304 
	C557.385864,528.668945 558.257141,530.054077 558.472839,532.677429 
	C559.129700,540.667725 559.065857,548.654114 558.806824,556.651062 
	C558.728943,559.055481 558.300232,561.618591 560.635986,563.171448 
	C562.295166,562.997559 562.562317,561.977051 562.547058,560.972046 
	C562.505127,558.207458 563.372742,556.549805 566.545410,556.654663 
	C569.420898,556.749756 572.391357,556.274170 572.828003,560.409485 
	C573.013123,562.163025 573.626648,563.842224 575.907776,563.421753 
	C578.202271,562.998901 577.855530,561.001343 577.879028,559.409790 
	C578.112000,543.587341 578.300354,527.764160 578.453003,511.477753 
M635.979675,493.943420 
	C637.987305,494.911011 639.411194,494.186310 639.494202,492.098480 
	C639.614868,489.062653 640.709412,485.464966 636.189819,483.531036 
	C634.659973,486.927826 635.035767,490.141632 635.979675,493.943420 
M622.628357,489.579620 
	C622.410645,487.569550 622.969604,484.550446 620.027405,484.748474 
	C617.474609,484.920258 618.454651,487.853180 618.175720,489.673615 
	C618.151184,489.833496 618.157349,490.004486 618.183289,490.164795 
	C618.449768,491.809814 617.597717,494.297485 620.278076,494.389893 
	C622.911011,494.480591 622.510925,492.120300 622.628357,489.579620 
M589.377258,508.225159 
	C588.920776,506.778748 589.545288,504.797791 587.172852,504.047485 
	C586.006104,505.908997 585.838623,507.828918 587.117981,509.523346 
	C587.838074,510.476990 588.901489,510.061676 589.377258,508.225159 
z"/>
<path fill="#000000" opacity="1.000000" stroke="none" 
	d="
M410.238892,349.954590 
	C447.423950,348.953033 478.578857,361.212433 503.260498,388.829041 
	C504.935974,390.703705 507.091644,392.369568 507.573700,395.168884 
	C505.552795,395.753082 504.867584,394.358246 503.934204,393.540558 
	C489.098969,380.543091 471.538696,374.097778 452.155243,372.307861 
	C393.834991,366.922424 344.741211,405.943390 324.269592,454.236847 
	C313.634521,479.325378 311.400635,505.259460 314.959656,532.039368 
	C318.773590,560.737671 329.271820,586.599915 346.723053,609.668945 
	C347.200073,610.299438 347.855591,610.902832 347.371979,611.863098 
	C345.893250,612.456482 345.291687,611.163025 344.539124,610.429626 
	C314.971222,581.617065 295.664520,547.359070 290.639313,506.016968 
	C286.384155,471.010254 292.405426,437.735870 312.239441,408.159149 
	C334.286346,375.282471 364.422119,354.450012 404.807007,350.574127 
	C406.463715,350.415100 408.112488,350.173401 410.238892,349.954590 
z"/>
<path fill="#000000" opacity="1.000000" stroke="none" 
	d="
M848.669189,530.636902 
	C845.487000,528.582520 845.014771,531.608948 844.125427,532.934692 
	C838.941284,540.662842 838.794189,549.436768 840.594910,557.973389 
	C844.671387,577.297852 856.212646,590.893127 874.668152,597.913574 
	C883.568298,601.299133 892.859070,601.207520 901.522644,596.051697 
	C896.792175,596.502014 892.092896,598.316223 887.091614,596.666687 
	C887.407288,594.274719 887.876770,592.161438 887.919983,590.039490 
	C887.979187,587.129395 889.305298,585.991089 892.145447,585.664551 
	C897.044678,585.101318 901.542297,583.362305 904.898315,579.532166 
	C910.006287,573.702515 907.908875,564.683105 901.071045,562.748596 
	C899.362976,562.265320 897.698486,562.079956 896.660156,563.864380 
	C895.797058,565.347656 896.041321,566.768433 897.550232,567.775818 
	C899.408936,569.016785 899.659668,570.740662 898.800293,572.577332 
	C897.947754,574.399292 896.210388,575.047791 894.297729,575.262878 
	C888.110962,575.958740 882.609619,568.559753 884.236206,561.726196 
	C886.447327,552.436340 897.287231,547.160767 907.473083,550.417053 
	C920.278625,554.510925 927.627258,569.760071 923.613892,583.910583 
	C918.144104,603.195679 898.166748,615.668762 876.852966,613.106201 
	C840.409912,608.724548 814.554138,566.249084 827.585022,532.169678 
	C834.194519,514.884033 849.636963,504.652069 867.546570,505.691620 
	C882.316162,506.548889 894.625732,521.373352 891.176025,534.387939 
	C889.546997,540.533875 885.813232,545.100037 879.439758,546.879761 
	C875.539856,547.968750 872.094238,546.639587 869.523682,543.713928 
	C867.594910,541.518616 866.830322,538.830872 869.083618,535.592224 
	C871.289978,538.847656 873.630615,541.722412 877.322998,538.071472 
	C880.134460,535.291626 879.035583,530.798401 874.976379,527.869690 
	C870.913879,524.938599 866.368103,524.921021 861.984741,527.962891 
	C860.348816,529.098145 858.641418,530.280151 857.390198,531.791443 
	C853.958130,535.936951 851.337952,534.674316 848.669189,530.636902 
M871.299622,521.060852 
	C871.932434,521.134766 872.565186,521.208740 873.197998,521.282654 
	C869.659912,518.921326 865.961914,518.557251 861.526855,520.054932 
	C864.703552,523.383423 867.827820,520.367737 871.299622,521.060852 
z"/>
<path fill="#000000" opacity="1.000000" stroke="none" 
	d="
M735.042236,345.171692 
	C735.584900,347.859619 736.029541,350.272888 738.411682,351.411316 
	C745.412109,354.756622 745.461304,360.726074 744.487244,369.110535 
	C735.567749,358.543884 720.841858,364.527863 712.575378,354.232880 
	C710.411316,359.039154 712.350586,364.006683 717.954773,367.936707 
	C722.316101,370.995148 726.945374,373.688873 731.175964,376.911713 
	C735.718323,380.372101 738.594788,384.818542 738.408325,390.970428 
	C738.273132,395.430542 736.798889,399.025452 733.648315,402.100311 
	C732.516174,403.205231 730.836731,403.904205 730.481079,405.725220 
	C736.566711,407.484406 739.041382,405.940765 738.973389,400.331696 
	C738.903870,394.599121 744.098145,395.627930 747.109253,393.904633 
	C749.773987,392.379639 751.035645,393.829956 752.511414,396.210480 
	C756.627014,402.849152 756.689453,404.759125 751.482788,409.324829 
	C750.474548,407.601135 751.847351,406.131592 751.830750,404.632538 
	C751.801392,401.992371 750.142334,400.800629 748.089600,399.867859 
	C746.886169,399.321014 745.630737,399.568329 744.931458,400.592010 
	C743.604187,402.535004 745.128113,403.846649 746.111816,405.429932 
	C747.757019,408.077728 748.963318,410.956238 750.716187,413.604431 
	C752.467041,416.249542 748.130920,420.512268 742.676514,421.396393 
	C744.161499,418.345703 747.375488,415.627655 743.864563,412.229523 
	C742.390259,410.802490 740.863037,409.902161 738.998962,410.683807 
	C736.613464,411.684113 738.108459,413.381104 738.566040,414.895172 
	C739.947632,419.466461 738.131226,421.080322 730.602295,421.524017 
	C732.691040,418.275391 737.507019,415.042053 730.906555,411.752350 
	C727.874939,413.044434 726.139526,417.242340 721.960510,416.869781 
	C721.855164,416.332916 721.644348,415.943176 721.760376,415.742096 
	C722.767578,413.996918 725.769043,412.810394 724.179932,410.345398 
	C722.655701,407.980804 720.196167,409.748474 718.237793,410.209747 
	C714.137451,411.175476 709.976013,411.098877 705.828125,411.407593 
	C699.712097,411.862793 694.665344,416.348328 693.424011,422.067322 
	C692.145996,427.955139 694.570557,434.098450 699.280212,436.905792 
	C702.954651,439.096069 707.892456,438.603882 710.234558,435.639893 
	C712.534790,432.728729 712.152100,429.700073 709.930298,426.944427 
	C706.964050,423.265472 704.012878,423.781067 701.360352,429.203339 
	C703.605530,427.457062 705.340942,426.959808 706.543823,429.117859 
	C707.426208,430.700897 707.701355,432.370087 706.161682,433.653137 
	C704.445068,435.083771 702.672180,434.295746 701.104248,433.234650 
	C698.132935,431.223816 696.194824,428.681305 697.462036,424.828156 
	C698.860535,420.576141 703.771362,417.521210 708.049377,418.183899 
	C717.040710,419.576721 722.347290,431.593597 717.397766,439.353424 
	C713.912415,444.817688 706.855286,447.894318 700.519226,446.711731 
	C682.113525,443.276367 674.138916,422.397522 684.899597,405.960632 
	C689.302917,399.234528 695.360229,394.421478 702.118713,390.296692 
	C708.063538,386.668549 708.234314,385.097260 703.304932,380.086700 
	C698.927551,375.637177 695.323914,370.679016 693.023743,364.867737 
	C688.116760,352.470490 692.477295,340.272644 704.089783,333.633270 
	C704.800903,333.226715 705.483521,332.770325 706.556458,332.102448 
	C704.537903,326.214386 699.884460,321.482819 698.542297,314.235901 
	C705.815552,319.026031 710.516174,325.628967 718.276062,328.371338 
	C719.423950,324.282562 719.081726,320.278015 722.306274,316.042145 
	C723.801025,327.550110 730.591248,335.590942 735.042236,345.171692 
z"/>
<path fill="#000000" opacity="1.000000" stroke="none" 
	d="
M628.854614,747.377808 
	C626.330994,741.017029 626.018188,736.411682 627.490784,729.278870 
	C627.658020,728.468567 627.618774,727.617310 627.756409,726.798645 
	C627.862000,726.170837 628.095581,725.564636 628.263123,724.980713 
	C631.092590,724.088501 633.304565,725.566528 635.600830,726.330322 
	C641.762146,728.380005 647.857605,730.628174 654.024170,732.661255 
	C657.653564,733.857788 658.520386,736.114868 657.474121,739.621216 
	C655.851685,745.059082 652.090454,748.686890 647.653687,751.820801 
	C646.467590,752.658691 644.807800,752.864075 644.093689,754.442627 
	C645.044678,756.254456 646.643433,755.624268 648.008728,755.409424 
	C655.721680,754.195312 660.333984,758.107239 660.313904,766.099243 
	C660.294373,773.862976 655.458862,778.554688 649.431580,782.273865 
	C644.902222,785.068787 639.678345,785.383362 633.244202,785.870300 
	C638.670593,789.178467 643.352234,790.493591 648.347290,788.571350 
	C652.129578,787.115723 653.814453,788.460693 655.160034,791.813293 
	C660.142822,804.228394 649.988464,818.174988 635.057678,819.210083 
	C630.922241,819.496887 626.774292,819.413940 621.480286,818.485779 
	C627.535645,823.129211 633.256409,824.354065 639.552246,823.518066 
	C640.996582,823.326294 642.665527,822.614990 643.694397,824.163940 
	C644.746521,825.747742 643.915344,827.375916 643.197449,828.893433 
	C641.028931,833.477478 637.023010,836.050781 632.463135,837.221313 
	C618.657715,840.765320 606.670288,834.724548 594.223572,830.369446 
	C595.232544,827.477417 597.190857,827.510498 598.569214,826.730469 
	C605.111938,823.027405 609.541260,817.982361 608.928345,809.964661 
	C608.721680,807.261536 609.731934,805.757141 611.843689,804.220825 
	C621.731934,797.026672 624.824219,788.020508 621.542664,776.250671 
	C621.002441,774.312805 620.767090,772.862549 622.522827,771.391174 
	C630.109619,765.033386 631.009521,756.783936 628.854614,747.377808 
z"/>
<path fill="#000000" opacity="1.000000" stroke="none" 
	d="
M619.040344,762.842163 
	C613.733887,771.011963 605.518250,772.207153 595.773560,772.703552 
	C600.081482,776.822021 604.037354,776.980164 608.109070,776.745483 
	C614.032532,776.404114 615.228088,777.649597 614.777710,783.740051 
	C613.846741,796.329895 601.876709,805.816772 589.304382,803.918030 
	C587.020325,803.572998 584.743774,803.178040 582.275818,802.775513 
	C585.995056,807.599548 589.049622,808.501892 601.656616,808.648804 
	C602.946777,810.352844 602.384399,812.083374 601.658630,813.800293 
	C598.441284,821.411926 585.734009,826.218201 578.277100,822.651367 
	C570.480652,818.922241 559.130676,811.189758 556.160339,807.519348 
	C558.665588,805.948120 561.257629,804.525879 563.611084,802.781616 
	C565.474487,801.400696 567.572510,799.670837 567.716431,797.314819 
	C568.043152,791.965271 571.732727,789.705933 575.410400,786.752136 
	C582.437195,781.108398 585.038452,773.358215 583.139160,764.428040 
	C582.632202,762.044250 582.782410,760.537415 584.891602,758.883118 
	C595.616333,750.471497 597.339722,740.416931 590.255371,728.739441 
	C589.602478,727.663269 589.033386,726.717896 589.851624,725.568176 
	C592.624878,721.671387 593.482483,717.108826 594.049988,712.057800 
	C602.953064,714.122009 610.947632,717.285645 618.800659,720.793945 
	C621.382812,721.947388 621.279114,724.581482 620.860107,726.928223 
	C619.835022,732.668701 616.237854,736.329834 611.062012,738.669861 
	C609.330994,739.452454 607.240295,739.684998 605.844116,741.663879 
	C608.383057,743.668640 611.112793,743.313416 613.594116,742.795044 
	C617.585449,741.961304 619.372620,743.745544 620.627869,747.221497 
	C622.573120,752.608398 622.242676,757.653809 619.040344,762.842163 
z"/>
<path fill="#000000" opacity="1.000000" stroke="none" 
	d="
M661.519043,810.391968 
	C666.268005,801.189270 665.203552,792.729797 659.205322,784.015686 
	C664.126465,781.704895 666.028015,777.317383 667.121033,772.553955 
	C668.723633,765.569885 668.363464,758.892090 662.675720,753.637634 
	C660.248657,751.395447 659.951965,749.483154 662.182739,746.883728 
	C664.418640,744.278259 664.361633,740.707153 665.197693,737.570557 
	C667.489624,736.143799 669.536133,737.484924 671.518616,737.968628 
	C677.333496,739.387512 683.090271,741.044373 688.869995,742.607361 
	C693.902954,743.968445 694.735168,745.439453 693.468689,750.502197 
	C692.180542,755.651428 689.121826,759.392090 684.572327,762.014404 
	C682.718872,763.082642 680.581421,763.745300 679.044861,765.889343 
	C680.925903,767.058472 682.763062,766.606079 684.630615,766.173645 
	C693.557922,764.106262 700.250000,770.694519 698.372131,779.929871 
	C696.687073,788.216797 691.085510,793.136597 683.443848,795.944519 
	C680.985901,796.847595 678.377441,797.341187 675.332703,798.157654 
	C678.259033,799.920471 680.826355,800.975159 683.700989,800.414001 
	C690.305420,799.124756 694.086365,803.136230 697.076538,807.870605 
	C700.334839,813.029541 699.737427,818.361572 695.997498,823.218201 
	C691.787598,828.684937 685.933289,831.691711 679.075562,833.770142 
	C680.994812,835.577148 683.436218,834.265320 684.872131,835.807678 
	C680.286499,840.598572 652.554871,843.414795 643.175598,840.057678 
	C643.120728,838.022034 645.225525,837.676392 646.106750,836.383301 
	C647.132935,834.877625 649.166565,833.454895 649.192200,831.969055 
	C649.354309,822.558411 656.381836,817.263916 661.519043,810.391968 
z"/>
<path fill="#000000" opacity="1.000000" stroke="none" 
	d="
M767.575684,810.661743 
	C758.656494,815.401855 750.507935,820.886353 740.298340,824.475830 
	C741.969055,813.648499 738.934875,805.957336 727.614319,802.796570 
	C737.787781,791.445251 742.143799,780.296387 727.868958,769.254456 
	C731.962830,764.309082 734.836792,758.986694 734.762451,752.489319 
	C734.737061,750.276733 736.318970,749.760559 738.153809,749.768921 
	C743.481750,749.793091 748.822693,749.633362 754.133423,749.957520 
	C759.083435,750.259766 762.849243,758.065430 761.226624,764.298889 
	C759.775391,769.874146 756.320496,774.026245 751.672852,777.291504 
	C750.515381,778.104675 748.937134,778.457886 747.906250,780.836243 
	C756.160217,779.375244 760.901917,783.231140 762.657043,790.343567 
	C764.838684,799.184509 759.235596,804.621948 752.797974,809.526367 
	C757.886902,810.563232 764.233887,806.018311 767.025940,799.630981 
	C770.510315,791.659790 768.052612,784.699158 758.910278,777.856812 
	C766.457825,770.121277 770.510986,761.337952 764.620483,750.245117 
	C770.867493,748.284668 776.778320,747.994568 782.660095,747.711304 
	C784.407043,747.627136 784.937378,749.440308 785.598938,750.762329 
	C788.773743,757.106873 787.111206,765.158142 781.509094,771.510620 
	C779.694580,773.568054 777.067566,774.955933 775.983398,777.595947 
	C777.111755,779.177673 778.758606,779.154480 780.080078,779.751953 
	C789.183105,783.867554 790.496460,794.842896 782.420532,800.765747 
	C777.728149,804.207092 772.741211,807.246948 767.575684,810.661743 
z"/>
<path fill="#000000" opacity="1.000000" stroke="none" 
	d="
M564.694580,762.624512 
	C567.096313,763.564392 569.256836,763.990845 571.409485,763.665894 
	C575.788696,763.004700 576.473145,765.416992 576.278198,768.947754 
	C575.693726,779.532227 563.538025,788.912292 552.805908,786.976013 
	C550.713135,786.598450 548.636230,786.132935 545.719177,785.538147 
	C549.933350,791.228516 555.746338,791.232178 561.348145,792.310364 
	C560.868835,797.479858 556.787598,798.657471 553.336487,800.288940 
	C550.378601,801.687317 547.742004,801.259644 545.205322,798.764832 
	C538.908997,792.572632 532.615173,786.402832 527.623474,779.062317 
	C526.632080,777.604492 525.094543,776.355957 525.441101,773.844421 
	C529.953003,772.745544 534.422852,771.190002 538.386475,768.338928 
	C544.158752,764.186829 546.900757,758.621948 546.446472,751.650757 
	C546.290466,749.257324 547.092407,748.121460 548.891968,746.813232 
	C557.947083,740.230286 560.577942,728.654419 555.225708,718.914490 
	C554.221130,717.086426 553.790771,715.786316 555.270508,714.046997 
	C557.838501,711.028503 559.028564,707.469788 558.989014,703.457275 
	C558.958984,700.418091 560.300720,699.224548 563.432495,700.405640 
	C569.813477,702.812073 576.226074,705.141052 582.675964,707.355408 
	C585.528320,708.334595 586.462708,710.169067 586.343933,713.040894 
	C586.082703,719.358643 581.593079,724.692566 574.476501,726.790161 
	C573.065002,727.206177 571.590881,727.409668 569.743530,727.795044 
	C571.585388,731.929321 575.106323,730.785583 577.883240,730.784912 
	C584.276611,730.783508 585.904419,732.128784 586.299927,738.624451 
	C586.930115,748.976135 577.558716,758.317932 566.349609,758.572937 
	C564.318848,758.619141 562.037781,757.631775 560.316345,759.727112 
	C561.159119,761.464050 562.985107,761.651245 564.694580,762.624512 
z"/>
<path fill="#000000" opacity="1.000000" stroke="none" 
	d="
M761.613159,594.419922 
	C763.144897,598.705444 764.509827,602.632202 765.931519,606.538330 
	C766.785767,608.885437 765.999695,610.107361 763.530579,610.112671 
	C748.718323,610.144775 733.905884,610.196716 719.093994,610.126282 
	C714.796204,610.105835 716.042725,607.236389 716.752563,604.834045 
	C720.802673,591.125244 725.062378,577.474915 728.883484,563.702820 
	C733.367676,547.540588 738.192444,531.433167 739.802979,514.620361 
	C739.858215,514.043274 740.278015,513.501160 741.172363,512.865112 
	C746.422852,540.364868 752.860901,567.486206 761.613159,594.419922 
z"/>
<path fill="#000000" opacity="1.000000" stroke="none" 
	d="
M638.775391,472.876770 
	C627.067383,472.880707 615.833252,472.880707 603.625549,472.880707 
	C615.343628,437.152893 626.938049,402.728424 629.365173,365.938904 
	C632.549072,402.609619 641.333923,437.735016 655.883606,472.872803 
	C649.571350,472.872803 644.410339,472.872803 638.775391,472.876770 
z"/>
<path fill="#000000" opacity="1.000000" stroke="none" 
	d="
M791.036926,443.435822 
	C793.926819,445.539856 792.388367,447.944427 791.880737,450.012421 
	C790.254150,456.638519 788.034119,463.088745 785.506958,469.435150 
	C784.846863,471.092773 783.873657,472.738800 784.172241,474.654144 
	C784.410522,474.919067 784.598206,475.333832 784.847412,475.374878 
	C793.016174,476.720825 793.096863,476.716125 793.031189,485.293976 
	C792.852783,508.584229 792.603394,531.873962 792.369446,555.163757 
	C792.354675,556.638306 792.542297,558.171265 791.251587,559.993591 
	C785.209351,559.156921 779.249451,557.167786 773.389648,554.980347 
	C770.806030,554.015930 771.679810,551.249023 771.674744,549.207336 
	C771.616943,525.904846 771.628113,502.602142 771.629761,479.299530 
	C771.630493,468.979797 771.798706,458.657043 771.587708,448.341888 
	C771.508301,444.459351 772.816040,442.832916 776.691162,443.004181 
	C781.339294,443.209656 785.996765,443.206146 791.036926,443.435822 
z"/>
<path fill="#000000" opacity="1.000000" stroke="none" 
	d="
M795.872437,308.779114 
	C795.543152,308.460419 795.418091,308.350189 795.296631,308.236145 
	C795.053772,308.007904 794.812927,307.777588 793.840820,306.854797 
	C796.528198,312.661743 792.661804,314.284576 789.131531,316.707306 
	C783.648865,309.482880 779.862000,299.723907 770.618225,297.865692 
	C761.607910,296.054382 753.146362,300.175171 747.146851,307.897614 
	C740.346741,296.689514 746.554077,279.054199 758.751709,277.127045 
	C777.185059,274.214630 785.634277,262.187988 790.717102,246.129257 
	C791.016602,245.183182 791.070679,244.129578 792.541382,243.658279 
	C794.937500,246.812271 798.207458,249.574341 797.525269,254.301529 
	C802.738037,254.367264 803.346191,258.872559 805.076965,262.167572 
	C806.558472,264.988037 804.790833,266.922211 802.699951,268.524109 
	C799.349976,271.090607 795.945984,273.586426 792.734253,276.373077 
	C797.479309,274.449097 801.354675,270.890320 806.344238,269.241577 
	C809.509216,272.062042 809.345154,275.914459 809.720032,279.423187 
	C810.009033,282.128082 807.482422,282.411011 805.527527,282.675079 
	C799.780334,283.451477 794.015930,284.100281 788.271362,285.114197 
	C794.039551,286.455933 799.835754,286.884857 805.705078,286.575409 
	C807.140015,286.499786 809.148193,286.193024 809.535706,288.040436 
	C810.175476,291.090576 808.951416,293.931946 807.531433,296.607849 
	C806.645691,298.277100 805.281677,298.247192 803.685181,297.635193 
	C799.818054,296.152679 795.917480,294.757660 791.873169,293.596802 
	C795.873840,296.552277 800.484314,298.602142 804.691040,302.584259 
	C801.940796,305.034607 801.986389,310.465698 795.872437,308.779114 
z"/>
<path fill="#000000" opacity="1.000000" stroke="none" 
	d="
M715.300781,805.963318 
	C721.467224,805.400330 726.893250,806.144226 731.484924,810.260681 
	C737.609497,815.751343 736.404236,825.876099 728.845032,828.889893 
	C719.245056,832.717407 709.296631,835.466919 698.850098,835.780884 
	C697.074707,835.834229 695.194092,835.943054 693.147095,833.896057 
	C700.078430,829.716675 705.757141,824.754028 706.013367,815.869690 
	C706.260986,807.286072 701.811279,801.547302 695.339844,796.909180 
	C709.124512,782.104858 709.368835,772.581055 696.091980,760.176453 
	C698.853516,756.644348 701.041138,752.661194 701.347656,747.883728 
	C701.475647,745.889587 703.182800,745.991394 704.812866,746.235291 
	C711.220764,747.194275 717.633484,748.132385 724.062012,748.938049 
	C727.458252,749.363647 728.687744,751.198730 728.166931,754.405701 
	C727.134094,760.765808 724.194397,765.985779 718.877319,769.769226 
	C717.825134,770.517883 716.418091,770.841492 715.858521,772.193481 
	C716.120544,773.092468 716.886841,772.940125 717.487671,772.937317 
	C728.065063,772.887878 733.442932,781.140381 729.283081,791.006653 
	C726.595459,797.381226 721.774719,801.425598 715.484009,803.946777 
	C714.334717,804.407410 714.367981,804.490356 715.300781,805.963318 
z"/>
<path fill="#000000" opacity="1.000000" stroke="none" 
	d="
M796.804077,527.000000 
	C796.804077,511.526489 796.903381,496.551880 796.736816,481.580200 
	C796.691772,477.532166 798.012451,475.754181 802.172607,475.950195 
	C806.488525,476.153534 810.827576,476.127472 815.145752,475.945648 
	C819.042297,475.781616 820.374207,477.416016 820.336914,481.265839 
	C820.158081,499.731323 820.297852,518.200073 820.087402,536.664978 
	C819.947693,548.924133 819.662781,561.175781 821.068726,574.592834 
	C814.965027,571.430420 809.926392,568.151733 804.424133,566.143921 
	C798.038025,563.813660 796.122314,560.080688 796.647644,553.440979 
	C797.327881,544.843689 796.807190,536.151367 796.804077,527.000000 
z"/>
<path fill="#000000" opacity="1.000000" stroke="none" 
	d="
M583.376648,233.221878 
	C594.554199,230.799133 603.760437,225.857529 610.431396,216.833405 
	C616.958191,208.004364 618.153687,197.375809 619.686584,186.443985 
	C622.494690,188.163681 622.012329,190.310623 622.265625,192.143753 
	C623.344543,199.953232 625.359131,207.441147 629.351868,214.336090 
	C636.017639,225.846832 647.058105,230.426544 659.151611,233.443420 
	C660.835022,233.863373 662.889282,233.505432 664.705688,236.376709 
	C635.527893,238.059952 624.166809,256.636047 621.181824,282.750519 
	C617.945251,281.187866 618.867188,278.907043 618.748657,277.108765 
	C617.410828,256.808258 604.778992,241.700668 585.773621,237.670029 
	C582.805237,237.040482 579.538086,237.871979 576.336304,236.045624 
	C578.442871,233.909241 580.847046,233.938797 583.376648,233.221878 
z"/>
<path fill="#000000" opacity="1.000000" stroke="none" 
	d="
M509.128235,741.811768 
	C508.660889,739.024170 510.459869,738.431030 512.107666,737.540161 
	C523.632812,731.309143 527.353394,720.877075 522.372925,708.869080 
	C521.804199,707.497925 520.601501,705.996033 521.992920,704.746155 
	C526.702698,700.515686 527.612976,694.843323 528.003662,688.353149 
	C535.708252,690.337036 542.796997,692.554626 549.452026,695.879211 
	C552.327820,697.315674 552.697998,703.428711 550.694153,707.867737 
	C548.858704,711.933899 545.487610,714.200623 541.485840,715.794189 
	C539.679871,716.513367 537.578125,716.623413 535.829895,718.440613 
	C537.671814,721.172546 540.250366,720.922302 542.769348,720.170593 
	C547.438416,718.777222 549.159302,721.163574 549.885254,725.242615 
	C551.516602,734.408875 544.823914,743.616028 534.590942,746.102234 
	C532.225220,746.677002 529.809021,747.043640 527.067688,747.573364 
	C529.408813,751.138611 532.689026,750.690613 535.745544,750.860046 
	C540.134827,751.103210 541.075500,752.463379 539.634033,756.475952 
	C537.516479,762.370483 527.446716,768.174927 521.255249,767.215332 
	C519.229675,766.901367 518.560730,765.509033 517.854004,763.988464 
	C514.554504,756.889771 511.624512,749.644653 509.128235,741.811768 
z"/>
<path fill="#000000" opacity="1.000000" stroke="none" 
	d="
M822.432739,636.323425 
	C811.190613,636.597595 800.388245,635.996582 789.583069,636.822754 
	C783.566650,637.282715 776.900269,630.435364 776.866394,624.394653 
	C776.830994,618.075806 777.027161,611.747559 776.740356,605.440735 
	C776.494629,600.034546 780.079224,600.850586 783.378601,600.693848 
	C786.956726,600.523804 789.784668,600.953125 789.299316,605.625977 
	C789.145691,607.104980 789.336609,608.616760 789.311462,610.112610 
	C789.269226,612.634888 790.485779,613.688354 792.989990,613.658142 
	C795.386353,613.629211 796.791565,612.710571 796.906616,610.205505 
	C796.952332,609.208984 797.115723,608.204102 797.036560,607.218201 
	C796.651245,602.420654 798.413208,600.353760 803.605530,600.627502 
	C811.085327,601.021729 811.116760,600.697388 811.282349,608.405273 
	C811.337097,610.951721 811.058533,613.517578 814.865723,613.628479 
	C818.564209,613.736145 818.689758,611.437256 818.792603,608.733704 
	C819.111084,600.359863 819.671082,599.990845 828.234314,600.710205 
	C830.643250,600.912537 831.991333,601.762939 831.991760,604.272949 
	C831.993103,611.921265 832.522522,619.620361 831.796936,627.199158 
	C831.349854,631.868347 827.105957,634.464722 822.432739,636.323425 
z"/>
<path fill="#000000" opacity="1.000000" stroke="none" 
	d="
M327.525146,342.488190 
	C362.352142,314.180847 413.466156,315.933746 435.034271,330.004150 
	C366.346497,320.903595 318.725250,350.367310 286.233612,408.437622 
	C283.124512,395.297272 305.156799,360.188446 327.525146,342.488190 
z"/>
<path fill="#000000" opacity="1.000000" stroke="none" 
	d="
M703.276245,598.192017 
	C703.277710,603.331055 703.299316,607.991394 703.265137,612.651306 
	C703.210999,620.037354 698.958618,624.286987 691.614258,624.386169 
	C679.803711,624.545654 667.993835,624.794495 656.182861,624.871155 
	C648.956970,624.918091 644.922485,620.740601 644.841003,613.451355 
	C644.783325,608.292236 644.873291,603.127258 644.648071,597.975769 
	C644.488342,594.321716 645.999451,592.711609 649.591370,592.892334 
	C650.420654,592.934082 651.255005,592.870300 652.087097,592.863953 
	C658.740845,592.813354 658.791138,592.910095 658.548340,599.475769 
	C658.465210,601.724121 657.870911,604.333313 660.726196,605.500854 
	C664.225281,606.931641 666.423523,605.132141 666.762146,600.957397 
	C666.967590,598.425842 665.490906,594.913208 668.287415,593.622864 
	C671.910339,591.951233 676.310120,592.108704 680.008606,593.403137 
	C683.306335,594.557373 681.833862,598.331299 682.010315,600.996155 
	C682.192017,603.738647 682.429077,605.980042 686.044800,605.868774 
	C688.485657,605.793640 689.842529,604.937988 689.763672,602.356995 
	C689.743347,601.692566 689.789917,601.026184 689.803101,600.360596 
	C689.937561,593.560425 694.737793,590.533630 701.174805,593.122131 
	C703.419373,594.024780 703.167664,595.913757 703.276245,598.192017 
z"/>
<path fill="#000000" opacity="1.000000" stroke="none" 
	d="
M801.976135,425.212738 
	C804.567749,411.324799 805.717529,397.672729 808.025085,384.012512 
	C811.647156,413.683563 816.120361,443.077484 827.030090,471.369690 
	C814.270203,471.369690 802.730469,471.369690 789.980957,471.369690 
	C795.171875,455.831818 800.128784,441.114746 801.976135,425.212738 
z"/>
<path fill="#000000" opacity="1.000000" stroke="none" 
	d="
M471.710785,722.272461 
	C450.040222,722.763611 429.020325,721.815186 408.561157,715.254211 
	C386.699554,708.243591 371.819092,693.115601 359.924805,674.354980 
	C359.690948,673.986145 359.753357,673.429382 359.511749,671.934998 
	C395.602234,696.956543 435.451721,711.148376 477.683838,720.310059 
	C475.847168,722.884644 473.830902,721.905884 471.710785,722.272461 
z"/>
<path fill="#000000" opacity="1.000000" stroke="none" 
	d="
M809.614014,345.290131 
	C805.088257,344.216583 800.939636,343.252106 796.791077,342.287659 
	C805.598145,338.215302 815.396301,336.663086 821.857117,328.482880 
	C828.248413,320.390747 828.583496,310.520355 830.972900,300.675598 
	C832.826721,321.847473 840.179871,338.204468 864.605469,341.543060 
	C844.027710,344.618469 832.803955,355.838776 831.208862,376.710480 
	C827.829407,363.171478 824.372925,350.522644 809.614014,345.290131 
z"/>
<path fill="#000000" opacity="1.000000" stroke="none" 
	d="
M372.918030,658.165955 
	C356.585358,647.863037 342.693085,635.478210 331.888672,619.644958 
	C373.426605,644.065063 413.723877,670.937317 462.681824,681.105347 
	C451.118225,686.173950 397.974823,672.272827 372.918030,658.165955 
z"/>
<path fill="#000000" opacity="1.000000" stroke="none" 
	d="
M664.824829,368.231232 
	C669.618713,361.434235 666.485962,352.369659 672.955017,345.156128 
	C676.696777,363.621033 687.254700,376.167786 702.782410,384.056641 
	C702.664673,386.939117 700.867310,387.465851 699.533752,388.267456 
	C692.376892,392.569336 686.118774,398.051544 679.590637,403.186676 
	C677.909424,404.509216 676.505920,407.973755 674.084717,406.236450 
	C671.443420,404.341156 668.583008,401.603241 669.315491,397.635529 
	C669.558228,396.320648 669.478210,396.456757 668.394531,395.834412 
	C663.882812,393.243469 663.129578,384.266571 667.163330,380.364471 
	C663.105774,377.171753 663.576294,372.961029 664.824829,368.231232 
z"/>
<path fill="#000000" opacity="1.000000" stroke="none" 
	d="
M785.945557,439.356110 
	C779.333679,439.356079 773.211487,439.356079 765.611267,439.356079 
	C775.039551,412.778778 778.901917,386.064270 781.551208,359.048859 
	C784.264526,362.764221 783.624878,367.039948 783.966675,370.927643 
	C785.694092,390.575287 789.656555,409.748291 795.092712,428.658722 
	C795.414490,429.777985 795.729431,430.901031 795.992249,432.035156 
	C797.364441,437.957275 796.365112,439.269897 790.434814,439.354248 
	C789.101929,439.373199 787.768494,439.356476 785.945557,439.356110 
z"/>
<path fill="#000000" opacity="1.000000" stroke="none" 
	d="
M517.847778,245.951263 
	C530.266907,241.041473 533.890564,230.562653 536.428406,218.538162 
	C538.750732,236.058456 548.066711,246.417877 566.041321,249.514297 
	C544.062500,252.600571 538.059509,267.490448 537.652527,287.044220 
	C534.302307,284.447723 535.096619,281.939789 534.827148,279.804810 
	C533.321228,267.876129 529.905029,257.191895 516.975830,252.943253 
	C513.634583,251.845291 510.093445,251.355560 506.533356,249.610764 
	C510.190765,248.446182 513.848145,247.281601 517.847778,245.951263 
z"/>
<path fill="#000000" opacity="1.000000" stroke="none" 
	d="
M817.567871,740.738037 
	C815.884705,738.225098 815.962341,736.512695 818.507996,735.083191 
	C834.419128,726.148438 847.119934,714.000427 855.672913,697.728455 
	C855.860291,697.371887 856.360168,697.179626 857.071655,696.639221 
	C857.876953,700.567017 856.554565,703.843811 855.585693,707.069824 
	C847.691345,733.354736 834.114136,756.030334 812.906860,773.822205 
	C809.685425,776.524780 809.130249,776.464722 805.706909,772.178162 
	C815.569458,764.165405 821.943665,754.609192 817.567871,740.738037 
z"/>
<path fill="#000000" opacity="1.000000" stroke="none" 
	d="
M787.508667,779.548340 
	C785.909546,778.362061 784.591858,777.398071 782.663574,775.987366 
	C792.330505,767.859375 795.366150,758.117065 790.087463,746.001709 
	C796.497192,743.923096 802.541260,741.733276 808.723816,740.053223 
	C811.904114,739.189026 812.470825,742.256653 813.051331,744.398132 
	C815.629028,753.907837 811.917236,761.338989 804.901489,767.446960 
	C799.660156,772.010071 799.574402,771.911621 804.346863,776.882629 
	C808.901550,781.626770 808.931641,782.046692 803.637451,785.935486 
	C800.206726,788.455383 797.172607,791.605225 792.488220,793.456543 
	C791.630981,788.449524 792.618774,782.966980 787.508667,779.548340 
z"/>
<path fill="#000000" opacity="1.000000" stroke="none" 
	d="
M589.677979,316.799225 
	C586.953918,321.871826 586.553589,327.328796 584.636292,332.651672 
	C583.187073,315.590485 575.365784,304.633606 557.013428,301.915161 
	C576.548584,300.189545 582.244629,287.486359 584.179199,271.120789 
	C586.878052,278.132233 587.024963,285.479553 591.384460,291.519867 
	C596.060181,297.998444 603.289856,299.310577 610.355835,302.003601 
	C602.134155,305.170166 593.954651,308.008667 589.677979,316.799225 
z"/>
<path fill="#000000" opacity="1.000000" stroke="none" 
	d="
M636.963196,305.015503 
	C634.269409,303.917084 631.369690,304.367981 628.387024,301.120697 
	C646.963623,300.155853 653.769409,288.862732 655.648743,272.279724 
	C658.043091,288.388123 664.599915,300.246490 683.065796,302.014893 
	C665.364319,305.207977 657.803711,316.158661 656.324890,332.838104 
	C653.488464,320.691833 650.753296,309.195374 636.963196,305.015503 
z"/>
<path fill="#000000" opacity="1.000000" stroke="none" 
	d="
M519.855225,694.306152 
	C518.519714,699.707031 515.319153,703.440918 511.372406,706.606628 
	C518.601562,712.540527 518.217773,724.587280 511.156860,729.614502 
	C508.307037,731.643555 506.443787,731.582764 505.650177,727.560913 
	C502.726196,712.742920 499.702484,697.943970 496.598328,683.162598 
	C495.845642,679.578369 497.252441,678.527100 500.507477,679.086243 
	C506.102478,680.047241 511.447418,681.826782 516.654419,684.068420 
	C521.449951,686.132935 520.333374,690.130798 519.855225,694.306152 
z"/>
<path fill="#000000" opacity="1.000000" stroke="none" 
	d="
M712.102295,278.148163 
	C710.176147,280.721161 708.795654,283.186615 707.987488,285.931000 
	C707.200378,288.603638 706.499023,291.301514 705.138123,294.448120 
	C702.780212,280.766449 696.264404,271.200806 681.200745,269.221069 
	C686.800598,266.193817 693.183289,265.716522 697.357361,260.917725 
	C701.369934,256.304626 703.392639,250.809601 705.187012,244.562347 
	C707.955322,258.132874 715.546265,266.337067 729.496399,268.540100 
	C722.957397,270.921265 716.751099,272.784637 712.102295,278.148163 
z"/>
<path fill="#000000" opacity="1.000000" stroke="none" 
	d="
M715.067871,473.158020 
	C721.840820,471.861969 722.218750,472.212280 722.395569,478.590363 
	C722.482910,481.739502 722.687256,484.895569 723.050232,488.023956 
	C723.388977,490.943542 722.475037,492.424774 719.344788,492.395966 
	C710.204041,492.311707 701.062195,492.287415 691.921082,492.322052 
	C689.409363,492.331573 688.213562,491.211517 688.197754,488.772614 
	C688.170837,484.619324 688.152161,480.465546 688.188110,476.312469 
	C688.207703,474.044189 689.158264,472.539520 691.654968,472.303741 
	C693.983276,472.083862 695.997925,472.218872 696.732483,474.999786 
	C697.108948,476.424896 697.420654,478.018280 699.742737,478.035492 
	C701.226685,475.717712 700.713440,471.718750 705.751282,471.901367 
	C710.776611,472.083557 709.399536,476.710785 711.599854,478.600250 
	C714.849731,478.022858 713.406006,474.888580 715.067871,473.158020 
z"/>
<path fill="#000000" opacity="1.000000" stroke="none" 
	d="
M538.098877,525.324829 
	C530.695862,525.122620 530.697083,525.122620 530.714539,518.322815 
	C530.722229,515.334351 530.715515,512.345825 530.730591,509.357422 
	C530.741943,507.105469 530.829346,504.985626 533.917786,504.742889 
	C536.865906,504.511139 538.773682,505.364471 539.064209,508.601105 
	C539.165100,509.724731 539.182983,511.001434 541.116577,511.425323 
	C543.907654,510.131439 541.505371,504.149719 547.333984,504.473785 
	C552.642151,504.768890 550.888062,509.823761 553.414490,511.483948 
	C555.902710,511.306915 555.608704,509.551636 555.675293,508.138275 
	C555.816162,505.148712 557.820496,504.793915 560.161194,504.743591 
	C563.030579,504.681915 563.273132,506.593140 563.284119,508.740570 
	C563.305298,512.891052 563.184875,517.050842 563.428589,521.188721 
	C563.606750,524.213013 562.559998,525.383728 559.504639,525.331665 
	C552.533752,525.212769 545.559082,525.313416 538.098877,525.324829 
z"/>
<path fill="#000000" opacity="1.000000" stroke="none" 
	d="
M545.465698,442.387512 
	C542.018860,444.441925 539.878906,447.156586 538.718750,450.565277 
	C537.664246,453.663483 536.835632,456.838623 535.302246,460.351807 
	C532.977722,448.122955 527.078369,439.641724 513.529602,438.134277 
	C518.306213,434.955933 524.206909,434.555847 528.124084,430.384521 
	C532.094055,426.157013 532.955933,420.529388 535.279358,415.169189 
	C537.620117,427.305450 543.545959,435.473145 557.048950,436.472839 
	C556.749451,436.876373 556.449951,437.279877 556.150452,437.683411 
	C552.696228,439.192444 549.242065,440.701477 545.465698,442.387512 
z"/>
<path fill="#000000" opacity="1.000000" stroke="none" 
	d="
M468.463287,599.066040 
	C472.872955,601.003845 476.383698,603.609253 478.959259,607.130066 
	C483.711853,613.627014 488.158325,620.347900 493.159088,627.593750 
	C489.796631,627.690186 488.430786,625.858948 486.840393,624.617249 
	C481.533417,620.473999 475.823334,617.148743 469.178894,615.697144 
	C463.241852,614.400085 459.320984,615.498230 449.357086,621.133789 
	C448.248810,614.373596 453.915680,611.570984 457.621826,607.436951 
	C453.963654,605.680420 451.381226,608.440125 448.516846,608.216797 
	C449.449432,599.642517 457.517426,595.874695 468.463287,599.066040 
z"/>
<path fill="#000000" opacity="1.000000" stroke="none" 
	d="
M877.664612,474.361084 
	C874.396240,465.547760 867.638062,461.958832 858.844910,460.265137 
	C864.085327,458.324554 869.395996,457.224701 873.136536,453.016022 
	C876.765564,448.932739 877.557312,443.587738 880.098511,438.382294 
	C882.543396,449.441864 887.586182,457.783691 900.113892,460.032532 
	C888.463745,462.798279 882.189697,469.816162 881.102295,481.517456 
	C878.123840,479.419037 879.000122,476.623016 877.664612,474.361084 
z"/>
<path fill="#000000" opacity="1.000000" stroke="none" 
	d="
M468.924377,286.900757 
	C469.158081,286.223633 469.434967,285.644623 469.826996,285.551788 
	C479.114502,283.352692 484.489380,277.546875 486.099579,268.159210 
	C486.193268,267.613007 486.857300,267.164642 488.263611,265.422119 
	C490.322296,276.302429 495.042511,284.067688 506.359436,286.240051 
	C496.966492,289.969818 489.864868,295.301941 488.342987,306.101074 
	C485.231842,302.065857 484.425690,297.165009 481.170135,293.640472 
	C477.827209,290.021362 473.234772,289.043793 468.924377,286.900757 
z"/>
<path fill="#000000" opacity="1.000000" stroke="none" 
	d="
M582.796326,471.892395 
	C584.288635,465.101379 585.695862,458.709442 587.103088,452.317535 
	C591.218933,465.563171 594.616394,478.796661 601.215454,491.823853 
	C592.300232,491.823853 584.476746,491.823853 576.089722,491.823853 
	C578.387085,485.047028 580.549133,478.669281 582.796326,471.892395 
z"/>
<path fill="#000000" opacity="1.000000" stroke="none" 
	d="
M188.840652,849.907593 
	C191.464432,850.075623 193.647934,850.056152 195.750870,850.458130 
	C198.559769,850.995117 200.118546,852.966797 200.037827,855.791748 
	C199.950821,858.835571 198.099152,861.086121 195.134338,861.158264 
	C184.988220,861.405457 174.830460,861.426453 164.683197,861.226257 
	C161.477951,861.163086 159.527115,858.803345 159.467224,855.578735 
	C159.402878,852.115723 161.875473,850.411316 164.910095,850.172607 
	C169.543900,849.807983 174.218735,849.950317 178.876434,849.908875 
	C182.038879,849.880676 185.201797,849.906250 188.840652,849.907593 
z"/>
<path fill="#000000" opacity="1.000000" stroke="none" 
	d="
M888.283447,392.233490 
	C889.725525,389.787415 889.465088,387.004395 891.921387,384.494049 
	C894.204834,393.997253 899.447449,400.504700 909.371155,403.307648 
	C899.993347,405.708679 893.907837,410.784302 891.951599,420.986481 
	C890.247192,410.516357 883.958496,405.748566 874.398621,403.908966 
	C879.822083,400.817902 885.856384,398.879669 888.283447,392.233490 
z"/>
<path fill="#000000" opacity="1.000000" stroke="none" 
	d="
M463.190277,567.274780 
	C461.651245,566.621399 461.281860,565.436707 462.631714,565.169434 
	C471.149139,563.483154 475.750854,557.974304 478.329193,549.386902 
	C480.907257,558.047302 486.781433,563.021729 495.034149,565.995789 
	C486.826202,568.788391 481.465424,573.494568 479.148438,582.099609 
	C476.089996,574.502380 471.553467,568.963745 463.190277,567.274780 
z"/>
<path fill="#000000" opacity="1.000000" stroke="none" 
	d="
M529.609863,366.512634 
	C530.623108,364.054565 531.471008,361.926208 532.967529,358.170013 
	C535.544678,367.418091 539.080261,374.456512 548.616272,376.318665 
	C540.769043,379.493286 535.495361,384.350494 533.175476,392.602539 
	C529.989075,384.917267 525.740540,378.878479 515.887573,376.953766 
	C521.744446,373.594147 527.008179,371.905609 529.609863,366.512634 
z"/>
<path fill="#000000" opacity="1.000000" stroke="none" 
	d="
M566.003845,377.923157 
	C563.624573,371.914612 558.860168,369.149963 552.912231,366.941040 
	C561.492554,364.723511 565.935425,359.120941 568.648804,351.153412 
	C571.186340,358.876160 575.394958,364.606598 583.902222,367.042877 
	C576.234741,369.948761 571.153259,374.755096 569.549744,382.335175 
	C566.626282,381.650818 566.918579,379.592163 566.003845,377.923157 
z"/>
<path fill="#000000" opacity="1.000000" stroke="none" 
	d="
M659.046021,485.128479 
	C660.587952,480.848907 662.085205,476.963226 663.328308,472.997833 
	C664.499268,469.262299 665.402344,465.442749 667.007507,461.590607 
	C670.831116,471.379974 673.091675,481.572968 677.710571,491.842438 
	C670.356934,492.627716 664.000671,492.263458 657.776184,492.105072 
	C656.627930,489.246399 658.366638,487.491913 659.046021,485.128479 
z"/>
<path fill="#000000" opacity="1.000000" stroke="none" 
	d="
M862.441650,571.493042 
	C865.724304,574.611206 866.584595,577.519897 862.892944,580.541809 
	C859.424500,583.381104 856.020630,583.034485 852.926636,579.442444 
	C848.956909,574.833801 846.181152,569.539673 844.323730,563.775513 
	C843.692261,561.815857 842.269348,558.878967 845.098511,558.229126 
	C848.206055,557.515320 852.295105,554.591003 854.849121,559.363342 
	C857.055054,563.485107 859.277771,567.570862 862.441650,571.493042 
z"/>
<path fill="#000000" opacity="1.000000" stroke="none" 
	d="
M912.984558,481.782349 
	C914.411926,488.686554 918.749817,492.673615 925.225403,495.154053 
	C918.781799,498.080597 914.380005,502.084259 912.085571,508.917755 
	C909.236450,502.112091 904.946777,497.263275 897.396973,495.153351 
	C904.847961,492.865784 908.491211,487.879181 910.571167,481.399139 
	C911.210388,479.407623 912.136108,480.273804 912.984558,481.782349 
z"/>
<path fill="#000000" opacity="1.000000" stroke="none" 
	d="
M860.246948,586.652832 
	C862.067322,582.989685 866.366577,582.361877 868.331543,578.555908 
	C872.942871,581.525085 877.400085,583.942871 882.335449,585.466919 
	C885.666565,586.495605 885.294006,589.455322 884.482910,592.129395 
	C883.625854,594.954956 882.564636,597.422607 878.638489,596.506958 
	C871.708923,594.890869 865.549683,591.937134 860.246948,586.652832 
z"/>
<path fill="#000000" opacity="1.000000" stroke="none" 
	d="
M522.286987,486.405762 
	C517.550049,488.304718 516.242920,492.679749 513.277710,497.867188 
	C510.893372,491.013336 506.914429,486.921356 500.726196,484.779175 
	C506.736938,481.595306 510.975647,477.633636 512.306396,470.853668 
	C515.442749,472.865967 515.165955,475.771820 516.598877,477.672974 
	C518.351196,479.997894 520.519531,481.681488 523.054871,483.044830 
	C525.520691,484.370850 524.709656,485.466827 522.286987,486.405762 
z"/>
<path fill="#000000" opacity="1.000000" stroke="none" 
	d="
M605.608521,352.590363 
	C610.269714,350.465790 610.944885,345.840240 613.355286,341.118378 
	C615.962952,347.603882 618.692749,352.812073 626.165283,355.572418 
	C619.400208,357.971008 616.072632,361.843018 613.652161,367.257812 
	C610.792480,362.101990 607.724976,357.683289 602.291321,356.143982 
	C602.363220,353.720764 604.189819,353.611298 605.608521,352.590363 
z"/>
<path fill="#000000" opacity="1.000000" stroke="none" 
	d="
M840.830200,547.045288 
	C841.169922,543.302063 841.464417,539.968689 842.913574,536.934143 
	C843.707581,535.271545 844.293457,532.497803 846.995239,533.939941 
	C849.226257,535.130798 852.833191,535.235291 852.530212,539.301880 
	C852.271790,542.770142 851.928406,546.281311 852.199829,549.728027 
	C852.592163,554.709473 848.838318,554.159912 845.988953,554.940857 
	C842.491760,555.899414 841.638489,553.629456 841.193359,550.943176 
	C841.004272,549.802307 840.945618,548.639771 840.830200,547.045288 
z"/>
<path fill="#000000" opacity="1.000000" stroke="none" 
	d="
M681.209473,228.056091 
	C678.484314,230.559113 675.631836,231.067978 672.580078,229.976730 
	C668.391846,228.479141 666.252319,223.871567 667.729492,219.839600 
	C669.092285,216.119904 673.168762,214.068466 677.068787,215.139664 
	C681.578003,216.378204 684.066223,220.308090 682.950989,224.626923 
	C682.666992,225.726654 681.974060,226.720795 681.209473,228.056091 
z"/>
<path fill="#000000" opacity="1.000000" stroke="none" 
	d="
M558.693909,326.215332 
	C561.300415,329.688416 561.440247,332.985382 559.144775,336.185852 
	C557.095825,339.042572 554.117676,339.847290 550.755676,339.214630 
	C547.638367,338.628021 545.828613,336.515381 545.039856,333.609955 
	C544.054871,329.981995 545.372375,326.972351 548.390808,324.946014 
	C551.882141,322.602203 555.307556,323.284943 558.693909,326.215332 
z"/>
<path fill="#000000" opacity="1.000000" stroke="none" 
	d="
M847.066528,436.117310 
	C844.760864,435.852051 842.770386,435.519867 843.029846,433.012054 
	C843.255859,430.827179 845.220520,430.655792 846.855042,430.761749 
	C850.542114,431.000793 851.990356,429.382416 851.752441,425.777588 
	C851.644287,424.138550 851.751953,422.134064 854.044312,422.092651 
	C856.301514,422.051849 856.429749,424.122681 856.619385,425.704163 
	C856.971008,428.636536 858.302490,430.156616 861.420593,430.135040 
	C863.075439,430.123596 864.950806,430.558441 864.889282,432.802917 
	C864.833069,434.853943 863.164001,435.645874 861.446655,435.702393 
	C857.376831,435.836334 855.922302,437.927032 856.250244,441.774597 
	C856.370911,443.189117 855.835632,444.530762 854.186035,444.657654 
	C852.153625,444.813934 851.737976,443.283478 851.709351,441.692352 
	C851.656860,438.775665 851.830688,435.763245 847.066528,436.117310 
z"/>
<path fill="#000000" opacity="1.000000" stroke="none" 
	d="
M522.404419,313.547363 
	C522.043457,316.030792 522.325745,318.804626 519.416138,318.935852 
	C516.613770,319.062225 516.748840,316.447906 516.735840,314.500092 
	C516.717224,311.711945 515.036804,311.280884 512.796265,311.272125 
	C510.858856,311.264526 508.885315,310.795563 508.777100,308.480469 
	C508.660675,305.988678 510.711365,305.607483 512.625793,305.716614 
	C516.152954,305.917694 516.771057,303.846191 516.721741,300.989136 
	C516.691650,299.249237 517.066223,297.431732 519.192566,297.293457 
	C521.527710,297.141571 521.696045,299.223358 521.795227,300.800964 
	C521.982300,303.777313 522.543213,306.045471 526.329895,305.718445 
	C528.177246,305.558868 529.685242,306.470612 529.660034,308.551910 
	C529.634766,310.638092 528.106323,311.272430 526.250916,311.361237 
	C524.755188,311.432800 523.198059,311.421448 522.404419,313.547363 
z"/>
<path fill="#000000" opacity="1.000000" stroke="none" 
	d="
M763.484680,484.983765 
	C765.150635,492.834595 760.839172,498.113983 754.866699,496.077148 
	C751.627502,494.972412 749.282593,492.773346 749.131958,489.234741 
	C748.977661,485.608978 750.699707,482.775208 754.220825,481.416473 
	C758.095581,479.921356 761.008362,481.440277 763.484680,484.983765 
z"/>
<path fill="#000000" opacity="1.000000" stroke="none" 
	d="
M852.755737,372.778900 
	C852.704407,372.246643 852.661560,372.003052 852.754395,371.928741 
	C856.231934,369.142487 861.933105,368.860535 862.149719,362.295441 
	C862.199707,360.780670 865.479675,362.115479 865.639587,364.215851 
	C865.919006,367.886475 867.014099,370.225922 871.252441,369.836700 
	C872.515137,369.720764 873.447083,370.568756 873.608948,371.925385 
	C873.807983,373.593964 872.738831,374.577362 871.338806,374.626190 
	C867.437195,374.762207 865.817139,376.719086 865.712769,380.495117 
	C865.675476,381.842804 864.756348,383.009827 863.108398,382.959991 
	C861.959167,382.925201 860.997925,382.054596 861.076721,381.128571 
	C861.515076,375.978638 858.491028,374.672089 854.201660,374.454285 
	C853.722717,374.429993 853.284485,373.601868 852.755737,372.778900 
z"/>
<path fill="#000000" opacity="1.000000" stroke="none" 
	d="
M513.321838,522.941040 
	C510.769562,526.476807 507.635803,527.508606 503.921661,526.247620 
	C500.747803,525.170044 499.145508,522.619446 499.023193,519.402649 
	C498.906464,516.331909 500.549652,514.029785 503.260803,512.596436 
	C506.026428,511.134216 508.843781,511.365356 511.238220,513.224487 
	C514.359680,515.648071 515.023376,518.911194 513.321838,522.941040 
z"/>
<path fill="#000000" opacity="1.000000" stroke="none" 
	d="
M496.688965,337.864197 
	C496.393066,339.192871 496.252136,340.175598 496.184235,341.163361 
	C496.061646,342.947906 495.604401,344.689056 493.491547,344.636169 
	C491.451538,344.585052 490.742523,342.851166 490.830750,341.084045 
	C490.995880,337.777161 489.840424,336.097046 486.277588,336.364197 
	C484.670471,336.484772 483.231140,335.624298 483.244781,333.800201 
	C483.258972,331.904144 484.897583,331.281219 486.398743,331.351501 
	C489.664673,331.504395 490.903564,330.056091 490.750092,326.918518 
	C490.672150,325.324890 491.169128,323.917023 493.182526,323.871521 
	C494.875397,323.833313 495.635376,324.985474 495.706573,326.369354 
	C495.885651,329.850647 497.116760,332.044556 501.053070,331.868622 
	C502.084900,331.822510 502.917389,332.576721 502.988342,333.747681 
	C503.071350,335.117218 502.307678,335.894287 501.023712,336.196472 
	C499.606079,336.530090 497.992798,336.243195 496.688965,337.864197 
z"/>
<path fill="#000000" opacity="1.000000" stroke="none" 
	d="
M733.469482,228.831512 
	C734.287170,234.262024 732.567383,237.542999 728.665588,238.618301 
	C725.246033,239.560684 721.054565,237.376953 719.895081,233.839767 
	C718.742065,230.322113 719.487122,227.187057 722.759460,225.156128 
	C726.254028,222.987213 730.248474,224.330002 733.469482,228.831512 
z"/>
<path fill="#000000" opacity="1.000000" stroke="none" 
	d="
M748.011475,455.385559 
	C749.935974,459.327209 750.254333,462.898773 746.768555,465.577606 
	C743.628174,467.990967 740.240601,467.959869 737.320801,465.003876 
	C734.765686,462.416992 734.939331,457.158783 737.695679,454.567322 
	C741.151672,451.318146 744.559692,451.897003 748.011475,455.385559 
z"/>
<path fill="#000000" opacity="1.000000" stroke="none" 
	d="
M837.585938,285.283508 
	C835.128479,281.345520 835.367554,277.918915 838.755859,275.264679 
	C841.524719,273.095581 844.747131,273.161621 847.494324,275.358795 
	C850.270752,277.579346 850.758118,280.664062 849.356567,283.881714 
	C847.346191,288.497131 842.833374,289.122467 837.585938,285.283508 
z"/>
<path fill="#000000" opacity="1.000000" stroke="none" 
	d="
M596.720398,420.254974 
	C598.117737,424.132690 597.505676,427.157501 594.280212,429.369080 
	C591.831665,431.047943 589.287781,431.112762 586.786926,429.523560 
	C584.263000,427.919647 583.411560,425.497101 583.761414,422.618591 
	C584.096375,419.863220 585.730530,417.937866 588.239563,417.102142 
	C591.575684,415.990997 594.486267,416.867096 596.720398,420.254974 
z"/>
<path fill="#000000" opacity="1.000000" stroke="none" 
	d="
M438.337555,569.612549 
	C439.596741,569.445007 440.570221,569.822632 440.646698,570.651794 
	C440.994385,574.421143 442.040314,577.312012 446.643707,577.334167 
	C447.545441,577.338623 448.075104,578.631226 447.892914,579.743896 
	C447.667267,581.122070 446.599609,581.646729 445.422791,581.856384 
	C443.432709,582.210938 441.352081,582.261475 441.312897,585.128723 
	C441.292572,586.614685 441.190674,588.385559 439.081207,588.353760 
	C437.162567,588.324829 436.797333,586.756104 436.584717,585.194702 
	C436.475311,584.391357 436.296844,583.597534 436.159943,582.855591 
	C434.398743,582.312866 432.692383,582.077148 431.302338,581.285828 
	C429.527954,580.275757 429.174805,577.645752 431.091125,577.544983 
	C436.484131,577.261353 436.075409,572.636963 438.337555,569.612549 
z"/>
<path fill="#000000" opacity="1.000000" stroke="none" 
	d="
M829.125366,492.921814 
	C827.433228,488.705109 829.091919,486.125336 832.616638,484.733093 
	C835.462585,483.608948 837.813965,484.784912 839.296570,487.400055 
	C840.912109,490.249573 840.418945,492.924866 837.850159,494.887787 
	C834.527466,497.426788 831.699280,496.229431 829.125366,492.921814 
z"/>
<path fill="#000000" opacity="1.000000" stroke="none" 
	d="
M757.777222,235.110291 
	C762.400330,231.070740 767.351624,232.122620 768.227966,236.993851 
	C768.674927,239.478012 767.918823,241.621231 765.748230,243.059692 
	C763.603638,244.480911 761.395630,244.646774 759.312988,242.922089 
	C756.858765,240.889603 755.963196,238.450638 757.777222,235.110291 
z"/>
<path fill="#000000" opacity="1.000000" stroke="none" 
	d="
M560.769287,400.190125 
	C564.074768,400.922302 565.789490,402.771454 565.931091,405.741058 
	C566.044006,408.108307 564.628906,409.819702 562.560181,410.765167 
	C560.275696,411.809326 558.026428,411.434937 556.141907,409.727295 
	C554.562927,408.296478 553.924072,406.450287 554.490723,404.365173 
	C555.296997,401.398529 557.475037,400.210754 560.769287,400.190125 
z"/>
<path fill="#000000" opacity="1.000000" stroke="none" 
	d="
M777.688110,342.752563 
	C774.702087,345.951630 771.704468,346.318115 768.866943,343.400635 
	C766.794617,341.269958 766.693298,338.626190 768.434326,336.156799 
	C770.217285,333.627838 772.638000,333.050659 775.366699,334.538483 
	C778.657959,336.332977 779.567871,338.994568 777.688110,342.752563 
z"/>
<path fill="#000000" opacity="1.000000" stroke="none" 
	d="
M590.334106,399.833069 
	C587.548584,395.501984 587.947083,392.326752 591.320007,390.964752 
	C594.498779,389.681183 597.417603,390.343231 598.784668,393.683228 
	C600.151428,397.022461 598.548279,399.454895 595.351501,400.809296 
	C593.680176,401.517365 592.106262,400.983856 590.334106,399.833069 
z"/>
<path fill="#000000" opacity="1.000000" stroke="none" 
	d="
M503.738831,543.594727 
	C509.259979,542.370605 512.810669,544.914246 511.836212,548.983276 
	C511.351898,551.005676 510.239624,552.675659 507.993317,553.106018 
	C505.863525,553.514038 504.002289,552.971191 502.776276,551.076294 
	C501.132111,548.535095 501.234344,546.086182 503.738831,543.594727 
z"/>
<path fill="#000000" opacity="1.000000" stroke="none" 
	d="
M884.546814,856.729370 
	C884.686340,852.461121 886.752625,850.277893 890.601440,851.039001 
	C893.990662,851.709167 894.865723,854.493408 894.051453,857.666992 
	C893.553101,859.609070 892.086670,860.845276 890.133423,861.060913 
	C887.224915,861.382019 885.448364,859.812500 884.546814,856.729370 
z"/>
<path fill="#000000" opacity="1.000000" stroke="none" 
	d="
M140.886627,861.222717 
	C137.572708,860.892151 136.071854,859.111816 135.912811,856.320007 
	C135.792114,854.201416 136.822327,852.498352 138.703537,851.439392 
	C140.524643,850.414124 142.220551,850.909973 143.746719,852.113525 
	C147.092728,854.752014 146.016144,858.694092 140.886627,861.222717 
z"/>
<path fill="#000000" opacity="1.000000" stroke="none" 
	d="
M688.382690,196.655060 
	C687.079651,191.306946 689.549255,187.966675 693.487244,189.219254 
	C695.339233,189.808319 696.675659,191.020050 697.048218,193.025665 
	C697.429016,195.076080 696.476440,196.617310 694.895874,197.735672 
	C692.611084,199.352325 690.511047,198.727051 688.382690,196.655060 
z"/>
<path fill="#000000" opacity="1.000000" stroke="none" 
	d="
M838.730103,401.004700 
	C839.350403,397.147247 841.449768,395.727844 844.724243,396.886169 
	C847.212341,397.766266 848.123352,399.954437 847.325439,402.488831 
	C846.500610,405.108795 844.449341,405.977905 841.885071,405.334900 
	C839.944824,404.848389 838.924927,403.402588 838.730103,401.004700 
z"/>
<path fill="#000000" opacity="1.000000" stroke="none" 
	d="
M568.658813,220.408051 
	C569.032715,218.679901 567.800171,217.161133 569.206604,215.588348 
	C571.801147,215.941772 572.041260,217.956436 571.676819,219.893143 
	C571.222961,222.305786 569.997864,224.257111 566.790710,223.843475 
	C566.384460,222.200546 568.419373,221.947418 568.658813,220.408051 
z"/>
</svg>